<?xml version="1.0" encoding="utf-8"?>
<!-- Generator: Adobe Illustrator 13.0.0, SVG Export Plug-In . SVG Version: 6.00 Build 14948)  -->
<!DOCTYPE svg PUBLIC "-//W3C//DTD SVG 1.1//EN" "http://www.w3.org/Graphics/SVG/1.1/DTD/svg11.dtd">
<svg version="1.1" id="Calque_1" xmlns="http://www.w3.org/2000/svg" xmlns:xlink="http://www.w3.org/1999/xlink" x="0px" y="0px"
	 width="16px" height="16px" viewBox="-1.4 -1.4 16 16" enable-background="new -1.4 -1.4 16 16" xml:space="preserve">
<path fill="#6EC563" d="M11.8,4.8c0-0.2-0.1-0.3-0.2-0.5l-0.9-0.9c-0.1-0.1-0.3-0.2-0.5-0.2c-0.1,0-0.3,0.1-0.5,0.2L5.6,7.7L3.2,5.4
	C3.1,5.2,3,5.2,2.7,5.2c-0.1,0-0.3,0-0.5,0.2L1.4,6.3C1.3,6.4,1.2,6.6,1.2,6.8c0,0.2,0.1,0.3,0.2,0.5L5.1,11
	c0.1,0.1,0.2,0.2,0.5,0.2c0.2,0,0.3-0.1,0.5-0.2l5.7-5.7C11.8,5.2,11.8,5.1,11.8,4.8L11.8,4.8z M14.6,6.6c0,1.5-0.3,2.9-1,4
	c-0.7,1.3-1.7,2.2-3,3c-1.2,0.7-2.6,1-4,1c-1.5,0-2.8-0.3-4-1c-1.2-0.7-2.2-1.7-3-3c-0.8-1.1-1.1-2.5-1.1-4s0.3-2.9,1-4
	c0.7-1.3,1.7-2.2,3-3c1.2-0.7,2.6-1,4-1c1.5,0,2.7,0.3,4,1c1.2,0.7,2.2,1.7,3,3C14.1,3.8,14.6,5.2,14.6,6.6z"/>
</svg>
