<?xml version="1.0" encoding="utf-8"?>
<!-- Generator: Adobe Illustrator 13.0.0, SVG Export Plug-In . SVG Version: 6.00 Build 14948)  -->
<!DOCTYPE svg PUBLIC "-//W3C//DTD SVG 1.1//EN" "http://www.w3.org/Graphics/SVG/1.1/DTD/svg11.dtd">
<svg version="1.1" id="Calque_1" xmlns="http://www.w3.org/2000/svg" xmlns:xlink="http://www.w3.org/1999/xlink" x="0px" y="0px"
	 width="16px" height="16px" viewBox="-1.6 -1.6 16 16" enable-background="new -1.6 -1.6 16 16" xml:space="preserve">
<path fill="#EEC75D" d="M7.6,11.6V9.8c0-0.1,0-0.1-0.1-0.2c0-0.1-0.1-0.1-0.2-0.1H5.6c-0.1,0-0.1,0-0.2,0.1c0,0.1,0,0.1,0,0.2v1.8
	c0,0.1,0,0.1,0.1,0.2c0,0.1,0.1,0.1,0.2,0.1h1.7c0.1,0,0.1,0,0.2-0.1C7.6,11.7,7.6,11.7,7.6,11.6z M7.6,8.1l0.1-4.3
	c0-0.1,0-0.1-0.1-0.2c0-0.1,0-0.1-0.1-0.1h-2c-0.1,0-0.1,0-0.2,0.1c-0.1,0-0.1,0.1-0.1,0.2l0.2,4.3v0.1c0.1,0,0.1,0.1,0.2,0.1h1.6
	c0.1,0,0.1,0,0.2-0.1C7.6,8.2,7.6,8.1,7.6,8.1L7.6,8.1z M7.4-0.9l6.8,13.5c0.2,0.5,0.2,0.8,0,1.3c-0.1,0.2-0.2,0.3-0.5,0.5
	c-0.2,0.1-0.3,0.1-0.6,0.1H-0.4c-0.2,0-0.3,0-0.6-0.1c-0.2-0.1-0.3-0.2-0.5-0.5c-0.1-0.6-0.1-0.9,0-1.4L5.5-0.9
	c0.1-0.2,0.2-0.3,0.5-0.5c0.1-0.1,0.3-0.2,0.5-0.2c0.2,0,0.3,0.1,0.6,0.2C7.2-1.2,7.3-1.1,7.4-0.9L7.4-0.9z"/>
</svg>
