<?xml version="1.0" encoding="utf-8"?>
<!-- Generator: Adobe Illustrator 13.0.0, SVG Export Plug-In . SVG Version: 6.00 Build 14948)  -->
<!DOCTYPE svg PUBLIC "-//W3C//DTD SVG 1.1//EN" "http://www.w3.org/Graphics/SVG/1.1/DTD/svg11.dtd">
<svg version="1.1" id="Calque_1" xmlns="http://www.w3.org/2000/svg" xmlns:xlink="http://www.w3.org/1999/xlink" x="0px" y="0px"
	 width="58px" height="58px" viewBox="0 0 58 58" enable-background="new 0 0 58 58" xml:space="preserve">
<path fill="#CADCEB" d="M58.1,38.9L19.2,0H0l58.1,58.1"/>
<path fill="#105289" d="M12.3,8.1l5-5.1l0.6,0.6l-2.1,2.1l2.4,2.4L20.3,6l0.6,0.6l-5.1,5.1l-0.6-0.6l2.4-2.4l-2.4-2.4l-2.4,2.4
	L12.3,8.1z M19.1,10c0.8-0.8,1.7-1.3,2.6-1.4c0.9-0.1,1.6,0.2,2.3,0.9c0.4,0.4,0.7,0.9,0.8,1.5c0.1,0.6,0.1,1.1-0.2,1.7
	c-0.2,0.6-0.6,1.1-1.1,1.6s-1.1,0.9-1.7,1.1c-0.6,0.2-1.2,0.3-1.7,0.1c-0.6-0.1-1-0.4-1.4-0.8c-0.4-0.4-0.7-0.9-0.8-1.5
	c-0.1-0.6-0.1-1.1,0.2-1.7C18.4,11,18.7,10.5,19.1,10z M19.8,10.6c-0.6,0.6-0.9,1.2-1,1.9c-0.1,0.6,0.1,1.2,0.6,1.6
	c0.5,0.5,1,0.7,1.7,0.6c0.6-0.1,1.3-0.4,1.9-1.1c0.4-0.4,0.7-0.8,0.9-1.3c0.2-0.4,0.2-0.9,0.2-1.3c-0.1-0.4-0.3-0.8-0.6-1.1
	c-0.4-0.4-1-0.6-1.6-0.6C21.2,9.5,20.5,9.9,19.8,10.6z M21.8,17.6l5.1-5.1l2,2c0.4,0.4,0.7,0.8,0.8,1.1c0.1,0.3,0.1,0.6,0,1
	c-0.1,0.4-0.3,0.7-0.6,1c-0.4,0.4-0.8,0.6-1.2,0.6c-0.5,0-0.9-0.1-1.4-0.5c0.1,0.2,0.1,0.4,0.1,0.6c0,0.4-0.1,0.7-0.2,1.2l-0.6,2.2
	L25,20.9l0.4-1.7c0.1-0.5,0.2-0.9,0.3-1.1c0-0.3,0.1-0.5,0-0.6c0-0.2-0.1-0.3-0.1-0.4c-0.1-0.1-0.2-0.2-0.3-0.4L24.7,16l-2.2,2.2
	L21.8,17.6z M25.3,15.4l1.3,1.3c0.3,0.3,0.5,0.5,0.7,0.6c0.2,0.1,0.4,0.1,0.7,0.1l0.6-0.3c0.2-0.2,0.4-0.5,0.4-0.8
	c0-0.3-0.2-0.6-0.5-1l-1.4-1.4L25.3,15.4z M27.9,20.4l0.6,0.5c-0.2,0.3-0.4,0.6-0.4,0.8c-0.1,0.3,0,0.5,0.1,0.9
	c0.1,0.3,0.3,0.6,0.6,0.9c0.2,0.2,0.5,0.4,0.7,0.5c0.3,0.1,0.5,0.1,0.7,0.1s0.4-0.1,0.6-0.3c0.2-0.2,0.3-0.3,0.3-0.5
	c0-0.2,0-0.4-0.1-0.7c-0.1-0.2-0.3-0.5-0.6-1.1c-0.3-0.5-0.5-0.9-0.6-1.2c-0.1-0.3-0.1-0.7,0-1c0.1-0.3,0.2-0.6,0.5-0.8
	c0.3-0.3,0.6-0.4,0.9-0.5c0.4-0.1,0.7-0.1,1.1,0.1c0.4,0.1,0.7,0.4,1,0.7c0.3,0.3,0.6,0.7,0.7,1.1s0.2,0.8,0.1,1.1
	c-0.1,0.4-0.3,0.7-0.6,1l-0.6-0.5c0.3-0.4,0.4-0.7,0.4-1s-0.2-0.7-0.5-1c-0.4-0.4-0.7-0.6-1-0.6S31.2,19,31,19.2
	c-0.2,0.2-0.3,0.4-0.3,0.6c0,0.2,0.2,0.7,0.5,1.3c0.4,0.6,0.6,1.1,0.7,1.3c0.1,0.4,0.2,0.8,0.1,1.1s-0.3,0.6-0.5,0.9
	c-0.3,0.3-0.6,0.5-1,0.6s-0.8,0.1-1.2,0c-0.4-0.1-0.8-0.4-1.1-0.7c-0.4-0.4-0.7-0.8-0.8-1.2s-0.2-0.8-0.1-1.3
	C27.3,21.1,27.5,20.7,27.9,20.4L27.9,20.4z M32.4,28.2l5.1-5.1l0.6,0.6l-4.5,4.5l2.2,2.2L35.2,31L32.4,28.2z M36.1,31.9l5.1-5.1
	l0.6,0.6l-5.1,5.1L36.1,31.9z M41.9,33.7l0.6-0.6l1.9,1.9l-1.9,1.9c-0.6,0-1.1-0.1-1.5-0.3c-0.4-0.2-0.8-0.4-1.2-0.8
	c-0.4-0.4-0.8-1-0.9-1.5c-0.2-0.6-0.1-1.2,0.1-1.8s0.6-1.1,1.1-1.6s1-0.9,1.7-1.1s1.2-0.3,1.8-0.1c0.6,0.1,1.1,0.4,1.5,0.9
	c0.3,0.3,0.6,0.7,0.7,1.1c0.1,0.4,0.2,0.8,0.1,1.1c-0.1,0.3-0.2,0.8-0.5,1.2l-0.7-0.4c0.2-0.3,0.3-0.6,0.4-0.9c0-0.2,0-0.5-0.1-0.8
	c-0.1-0.3-0.3-0.5-0.5-0.8c-0.3-0.3-0.6-0.5-0.9-0.6c-0.3-0.1-0.6-0.1-0.9-0.1s-0.5,0.1-0.8,0.2c-0.4,0.2-0.8,0.5-1.2,0.8
	c-0.5,0.5-0.8,0.9-0.9,1.3c-0.2,0.4-0.2,0.9-0.1,1.3c0.1,0.4,0.3,0.8,0.6,1.1c0.3,0.3,0.6,0.5,0.9,0.6c0.4,0.1,0.7,0.2,0.9,0.2
	L43,35L41.9,33.7z M42.7,38.5l5.1-5.1l0.6,0.6l-1.6,6.4l4-4l0.6,0.6l-5.1,5.1l-0.6-0.6l1.6-6.4l-4,4L42.7,38.5z M47.4,43.2l5.1-5.1
	l3.3,3.3L55.1,42l-2.7-2.7l-1.5,1.5l2.5,2.5L52.8,44l-2.5-2.5l-1.7,1.7l2.8,2.8l-0.6,0.6L47.4,43.2z"/>
</svg>
