<?xml version="1.0" encoding="utf-8"?>
<!-- Generator: Adobe Illustrator 13.0.0, SVG Export Plug-In . SVG Version: 6.00 Build 14948)  -->
<!DOCTYPE svg PUBLIC "-//W3C//DTD SVG 1.1//EN" "http://www.w3.org/Graphics/SVG/1.1/DTD/svg11.dtd">
<svg version="1.1" id="Calque_1" xmlns="http://www.w3.org/2000/svg" xmlns:xlink="http://www.w3.org/1999/xlink" x="0px" y="0px"
	 width="58px" height="58px" viewBox="0 0 58 58" enable-background="new 0 0 58 58" xml:space="preserve">
<path fill="#CADCEB" d="M58.1,38.9L19.2,0H0l58.1,58.1"/>
<path fill="#105289" d="M15.8,11.6l5.1-5.1l3.7,3.7L24,10.8l-3-3l-1.6,1.5l2.8,2.8l-0.6,0.6L18.8,10l-1.7,1.7l3.1,3.1l-0.6,0.6
	L15.8,11.6z M20.5,16.3l5.1-5.1l0.7,0.7L25,18.6l4-4l0.6,0.6l-5.1,5.1l-0.7-0.7l1.3-6.6l-4,4L20.5,16.3z M27.6,23.4l5.1-5.1l0.7,0.7
	l-4.5,4.5l2.5,2.5l-0.6,0.6L27.6,23.4z M31.7,27.5l5.1-5.1l0.7,0.7l-5.1,5.1L31.7,27.5z M37.9,29.7l0.6-0.6l2.1,2.1l-1.9,1.9
	c-0.6-0.1-1.1-0.2-1.6-0.4s-0.9-0.5-1.3-0.9c-0.5-0.5-0.8-1.1-1-1.7c-0.2-0.6-0.2-1.2,0-1.8c0.2-0.6,0.5-1.2,1-1.7s1.1-0.8,1.7-1.1
	c0.6-0.2,1.2-0.2,1.8-0.1c0.6,0.2,1.1,0.5,1.6,1c0.4,0.4,0.6,0.8,0.8,1.2s0.2,0.8,0.2,1.2c0,0.4-0.2,0.8-0.4,1.2l-0.8-0.4
	c0.2-0.3,0.3-0.6,0.3-0.9c0-0.3,0-0.5-0.1-0.8c-0.1-0.3-0.3-0.6-0.6-0.8c-0.3-0.3-0.6-0.5-0.9-0.7c-0.3-0.1-0.6-0.2-0.9-0.2
	s-0.6,0.1-0.8,0.2c-0.4,0.2-0.8,0.5-1.2,0.8c-0.5,0.5-0.8,0.9-0.9,1.4c-0.1,0.5-0.1,0.9,0,1.4c0.1,0.4,0.4,0.8,0.7,1.2
	c0.3,0.3,0.6,0.5,1,0.7c0.4,0.2,0.7,0.3,1,0.3l0.9-0.9L37.9,29.7z M39,34.8l5.1-5.1l0.7,0.7L43.5,37l4-4l0.6,0.6L43,38.8l-0.7-0.7
	l1.3-6.6l-4,4L39,34.8z M44.1,39.9l5.1-5.1l3.7,3.7l-0.6,0.6l-3-3l-1.5,1.6l2.8,2.8L50,41.1l-2.8-2.8L45.4,40l3.1,3.1l-0.6,0.6
	L44.1,39.9z"/>
</svg>
