<svg xmlns="http://www.w3.org/2000/svg" width="64" height="64" viewBox="-2.5 -2.5 64 64"><circle fill="#196DB5" cx="29.5" cy="29.5" r="30"/><circle fill="#F6F6F5" cx="29.5" cy="29.5" r="27.5"/><linearGradient id="c" gradientUnits="userSpaceOnUse" x1="29.5" y1="54.5" x2="29.5" y2="4.5"><stop offset="0" stop-color="#fff"/><stop offset="1" stop-color="#e5e5e5"/></linearGradient><circle fill="url(#c)" cx="29.5" cy="29.5" r="25"/><path fill="#666" d="M37.5 14c-.8-.9-1.7-1.4-3-1.5s-2.3.2-3.2 1c-.9.8-1.4 1.7-1.5 2.8-.1 1.2.2 2.2 1 3 .8.9 1.7 1.4 3 1.5 1.2.1 2.3-.2 3.2-1 .9-.8 1.4-1.7 1.5-2.8.1-1-.2-2.1-1-3zm-6.3 27.6c-.4.3-.7.4-1 .4-.2 0-.4-.1-.5-.3-.2-.2-.2-.4-.2-.6 0-.4.3-1.1.7-2.3l3.4-8.5.4-1.1c.4-1.1.7-2 .7-2.6.1-1.1-.2-2-.9-2.7-.7-.8-1.7-1.2-3-1.3-3.4-.3-6.9 2-10.3 6.8l.9.7c1.4-1.8 2.7-2.9 3.6-3.5.4-.3.7-.4 1-.4.2 0 .4.1.5.3.2.2.2.4.2.6 0 .4-.3 1.1-.7 2.3l-3.4 8.5-.4 1.1c-.4 1.1-.7 2-.7 2.6-.1 1.1.2 2 .9 2.7.7.8 1.7 1.2 3 1.3 3.4.3 6.9-2 10.3-6.8l-.9-.8c-1.5 1.8-2.7 3-3.6 3.6z"/></svg>