<svg xmlns="http://www.w3.org/2000/svg" width="64" height="64" viewBox="-2.5 -2.5 64 64"><circle fill="#196DB5" cx="29.5" cy="29.5" r="30"/><circle fill="#F6F6F5" cx="29.5" cy="29.5" r="27.5"/><linearGradient id="c" gradientUnits="userSpaceOnUse" x1="29.5" y1="54.5" x2="29.5" y2="4.5"><stop offset="0" stop-color="#fff"/><stop offset="1" stop-color="#e5e5e5"/></linearGradient><circle fill="url(#c)" cx="29.5" cy="29.5" r="25"/><path fill="#666" d="M23.7 28h11.6v-4.4c0-1.6-.6-3-1.7-4.1-1.1-1.1-2.5-1.7-4.1-1.7-1.6 0-3 .6-4.1 1.7-1.1 1.1-1.7 2.5-1.7 4.1V28zm18.8 2.2v13.1c0 .6-.2 1.1-.6 1.5-.4.4-.9.6-1.5.6H18.7c-.6 0-1.1-.2-1.5-.6-.4-.4-.6-.9-.6-1.5V30.2c0-.6.2-1.1.6-1.5.4-.4.9-.6 1.5-.6h.7v-4.4c0-2.8 1-5.2 3-7.2s4.4-3 7.1-3 5.1 1 7.1 3 3 4.4 3 7.2V28h.7c.6 0 1.1.2 1.5.6.5.5.7 1 .7 1.6z"/></svg>