<svg xmlns="http://www.w3.org/2000/svg" width="64" height="64" viewBox="-2.5 -2.5 64 64"><circle fill="#196DB5" cx="29.5" cy="29.5" r="30"/><circle fill="#F6F6F5" cx="29.5" cy="29.5" r="27.5"/><linearGradient id="c" gradientUnits="userSpaceOnUse" x1="29.5" y1="54.5" x2="29.5" y2="4.5"><stop offset="0" stop-color="#fff"/><stop offset="1" stop-color="#e5e5e5"/></linearGradient><circle fill="url(#c)" cx="29.5" cy="29.5" r="25"/><g fill="#666"><path d="M14.5 19.5h30v2h-30zM14.5 25.5h30v2h-30zM14.5 31.5h16v2h-16zM14.5 43.5h30v2h-30zM14.5 37.5h30v2h-30zM14.5 13.5h16v2h-16z"/></g><g><circle fill="#FFF" cx="43.5" cy="43.5" r="16"/><circle fill="#196DB5" cx="43.5" cy="43.5" r="14"/><circle fill="#F6F6F5" cx="43.5" cy="43.5" r="11.5"/><linearGradient id="d" gradientUnits="userSpaceOnUse" x1="43.5" y1="52.5" x2="43.5" y2="34.5"><stop offset="0" stop-color="#fff"/><stop offset="1" stop-color="#e5e5e5"/></linearGradient><circle fill="url(#d)" cx="43.5" cy="43.5" r="9"/><path fill="#666" d="M38.5 46.5h11v2h-11zM38.5 42.5h11v2h-11zM38.5 38.5h6v2h-6z"/></g></svg>