<svg xmlns="http://www.w3.org/2000/svg" width="64" height="64" viewBox="-2.5 -2.5 64 64"><circle fill="#BC2A4D" cx="29.5" cy="29.5" r="30"/><circle fill="#F6F6F5" cx="29.5" cy="29.5" r="27.5"/><linearGradient id="a" gradientUnits="userSpaceOnUse" x1="29.5" y1="54.5" x2="29.5" y2="4.5"><stop offset="0" stop-color="#fff"/><stop offset="1" stop-color="#e5e5e5"/></linearGradient><circle fill="url(#a)" cx="29.5" cy="29.5" r="25"/><g><path fill="#E5E5E5" d="M16.6 22.9v13.2l8.5-6.6zM40.2 20.7H18.8l10.7 9.1zM42.4 36.1V22.9l-8.5 6.6zM29.5 32.9l-2.2-1.7-8.5 7.1h21.4l-8.5-7.1z"/><path fill="#BC2A4D" d="M14.5 18.5v22h30v-22h-30zm25.7 2.2l-10.7 9.1-10.7-9.1h21.4zm-23.6 2.2l8.4 6.6-8.4 6.6V22.9zm2.2 15.4l8.5-7.1 2.2 1.7 2.2-1.7 8.5 7.1H18.8zm23.6-2.2l-8.5-6.6 8.5-6.6v13.2z"/></g></svg>