<svg xmlns="http://www.w3.org/2000/svg" width="64" height="64" viewBox="-2.5 -2.5 64 64"><circle fill="#BC2A4D" cx="29.5" cy="29.5" r="30"/><circle fill="#F6F6F5" cx="29.5" cy="29.5" r="27.5"/><linearGradient id="a" gradientUnits="userSpaceOnUse" x1="29.5" y1="54.5" x2="29.5" y2="4.5"><stop offset="0" stop-color="#fff"/><stop offset="1" stop-color="#e5e5e5"/></linearGradient><circle fill="url(#a)" cx="29.5" cy="29.5" r="25"/><path fill="#BC2A4D" d="M29.6 36.8c-1.3 0-2.5.5-3.4 1.4-.9.9-1.4 2.1-1.4 3.4 0 1.3.5 2.4 1.4 3.4.9.9 2 1.4 3.4 1.4 1.3 0 2.4-.5 3.4-1.4.9-.9 1.4-2 1.4-3.4 0-1.3-.5-2.5-1.4-3.4-1-.9-2.1-1.4-3.4-1.4zm-2.1-9.6c.8 2.4 1.3 4.4 1.5 6h1.4c.3-2.3.7-4.4 1.3-6l1.7-4.8c1.1-3 1.6-5.1 1.6-6.2 0-1.1-.5-1.9-1.5-2.6-1-.7-2.3-1-3.9-1s-2.9.3-3.9 1-1.5 1.6-1.5 2.7c0 1.2.5 3.3 1.5 6.2l1.8 4.7z"/></svg>