<svg xmlns="http://www.w3.org/2000/svg" width="64" height="64" viewBox="-2.5 -2.5 64 64"><circle fill="#BC2A4D" cx="29.5" cy="29.5" r="30"/><circle fill="#F6F6F5" cx="29.5" cy="29.5" r="27.5"/><linearGradient id="a" gradientUnits="userSpaceOnUse" x1="29.5" y1="54.5" x2="29.5" y2="4.5"><stop offset="0" stop-color="#fff"/><stop offset="1" stop-color="#e5e5e5"/></linearGradient><circle fill="url(#a)" cx="29.5" cy="29.5" r="25"/><path fill="#BC2A4D" d="M29.6 36.8c-1.3 0-2.5.5-3.4 1.4-.9.9-1.4 2.1-1.4 3.4 0 1.3.5 2.4 1.4 3.4.9.9 2 1.4 3.4 1.4 1.3 0 2.4-.5 3.4-1.4.9-.9 1.4-2 1.4-3.4 0-1.3-.5-2.5-1.4-3.4-1-.9-2.1-1.4-3.4-1.4zm-2.1-9.6c.8 2.4 1.3 4.4 1.5 6h1.4c.3-2.3.7-4.4 1.3-6l1.7-4.8c1.1-3 1.6-5.1 1.6-6.2 0-1.1-.5-1.9-1.5-2.6-1-.7-2.3-1-3.9-1s-2.9.3-3.9 1-1.5 1.6-1.5 2.7c0 1.2.5 3.3 1.5 6.2l1.8 4.7z"/><g fill="#666"><path stroke="#FFF" stroke-width="3" d="M45.9 46.6H53v-2.7c0-1-.3-1.9-1-2.6-.7-.7-1.5-1.1-2.5-1.1s-1.8.4-2.5 1.1c-.7.7-1 1.6-1 2.6l-.1 2.7h0zM57.5 48v8.2c0 .4-.1.7-.4 1-.3.3-.6.4-.9.4H42.8c-.4 0-.7-.1-.9-.4-.3-.3-.4-.6-.4-1V48c0-.4.1-.7.4-1 .3-.3.6-.4.9-.4h.4v-2.7c0-1.7.6-3.2 1.8-4.5 1.2-1.2 2.7-1.9 4.4-1.9 1.7 0 3.2.6 4.4 1.9 1.2 1.3 1.8 2.7 1.8 4.5v2.7h.4c.4 0 .7.1.9.4.5.3.6.6.6 1h0z"/><path d="M45.9 46.6H53v-2.7c0-1-.3-1.9-1-2.6-.7-.7-1.5-1.1-2.5-1.1s-1.8.4-2.5 1.1c-.7.7-1 1.6-1 2.6l-.1 2.7zM57.5 48v8.2c0 .4-.1.7-.4 1-.3.3-.6.4-.9.4H42.8c-.4 0-.7-.1-.9-.4-.3-.3-.4-.6-.4-1V48c0-.4.1-.7.4-1 .3-.3.6-.4.9-.4h.4v-2.7c0-1.7.6-3.2 1.8-4.5 1.2-1.2 2.7-1.9 4.4-1.9 1.7 0 3.2.6 4.4 1.9 1.2 1.3 1.8 2.7 1.8 4.5v2.7h.4c.4 0 .7.1.9.4.5.3.6.6.6 1z"/></g><path fill="#BC2A4D" stroke="#FFF" stroke-width="2" d="M50.5-.5l2.8 5.9 6.2 1-4.6 4.6 1.1 6.5-5.5-3.1-5.6 3.1L46 11l-4.4-4.6 6.2-1 2.7-5.9z"/></svg>