<svg xmlns="http://www.w3.org/2000/svg" width="64" height="64" viewBox="-2.5 -2.5 64 64"><circle fill="#196DB5" cx="29.5" cy="29.5" r="30"/><circle fill="#F6F6F5" cx="29.5" cy="29.5" r="27.5"/><linearGradient id="c" gradientUnits="userSpaceOnUse" x1="29.5" y1="54.5" x2="29.5" y2="4.5"><stop offset="0" stop-color="#fff"/><stop offset="1" stop-color="#e5e5e5"/></linearGradient><circle fill="url(#c)" cx="29.5" cy="29.5" r="25"/><g><path fill="#666" d="M14.5 37.5h30v2h-30zM14.5 43.5h16v2h-16zM38.5 31.5h6v2h-6zM38.5 25.5h6v2h-6zM38.5 19.5h6v2h-6z"/><path fill="#196DB5" d="M15.2 33.8c-.4-.4-.7-1-.7-1.6V15.8c0-.6.2-1.2.7-1.6.4-.4 1-.7 1.6-.7h16.4c.6 0 1.2.2 1.6.7.4.4.7 1 .7 1.6v1.9c0 .6-.2 1.2-.7 1.6-.4.4-1 .7-1.6.7h-7.4l8.9 8.9c.4.4.7 1 .7 1.6 0 .6-.2 1.2-.7 1.6l-1.6 1.6c-.4.4-1 .7-1.6.7-.6 0-1.2-.2-1.6-.7L21 24.8v7.4c0 .6-.2 1.2-.7 1.6-.4.4-1 .7-1.6.7h-1.9c-.6 0-1.2-.2-1.6-.7z"/></g></svg>