<svg xmlns="http://www.w3.org/2000/svg" width="64" height="64" viewBox="-2.5 -2.5 64 64"><circle fill="#196DB5" cx="29.5" cy="29.5" r="30"/><circle fill="#F6F6F5" cx="29.5" cy="29.5" r="27.5"/><linearGradient id="c" gradientUnits="userSpaceOnUse" x1="29.5" y1="54.5" x2="29.5" y2="4.5"><stop offset="0" stop-color="#fff"/><stop offset="1" stop-color="#e5e5e5"/></linearGradient><circle fill="url(#c)" cx="29.5" cy="29.5" r="25"/><g fill="#666"><path d="M14.5 13.5h24v2h-24zM14.5 19.5h30v2h-30zM14.5 25.5h30v2h-30zM14.5 31.5h30v2h-30zM14.5 37.5h30v2h-30zM14.5 43.5h16v2h-16z"/></g><g fill="#666"><path stroke="#FFF" stroke-width="3" d="M45.9 46.6H53v-2.7c0-1-.3-1.9-1-2.6-.7-.7-1.5-1.1-2.5-1.1s-1.8.4-2.5 1.1c-.7.7-1 1.6-1 2.6l-.1 2.7h0zM57.5 48v8.2c0 .4-.1.7-.4 1-.3.3-.6.4-.9.4H42.8c-.4 0-.7-.1-.9-.4-.3-.3-.4-.6-.4-1V48c0-.4.1-.7.4-1 .3-.3.6-.4.9-.4h.4v-2.7c0-1.7.6-3.2 1.8-4.5 1.2-1.2 2.7-1.9 4.4-1.9 1.7 0 3.2.6 4.4 1.9 1.2 1.3 1.8 2.7 1.8 4.5v2.7h.4c.4 0 .7.1.9.4.5.3.6.6.6 1h0z"/><path d="M45.9 46.6H53v-2.7c0-1-.3-1.9-1-2.6-.7-.7-1.5-1.1-2.5-1.1s-1.8.4-2.5 1.1c-.7.7-1 1.6-1 2.6l-.1 2.7zM57.5 48v8.2c0 .4-.1.7-.4 1-.3.3-.6.4-.9.4H42.8c-.4 0-.7-.1-.9-.4-.3-.3-.4-.6-.4-1V48c0-.4.1-.7.4-1 .3-.3.6-.4.9-.4h.4v-2.7c0-1.7.6-3.2 1.8-4.5 1.2-1.2 2.7-1.9 4.4-1.9 1.7 0 3.2.6 4.4 1.9 1.2 1.3 1.8 2.7 1.8 4.5v2.7h.4c.4 0 .7.1.9.4.5.3.6.6.6 1z"/></g></svg>